<svg xmlns="http://www.w3.org/2000/svg" viewBox="0 0 64 64">
  <defs>
    <linearGradient id="bg" x1="0%" y1="0%" x2="100%" y2="100%">
      <stop offset="0%" stop-color="#0f172a" />
      <stop offset="100%" stop-color="#312e81" />
    </linearGradient>
    <linearGradient id="note" x1="0%" y1="0%" x2="100%" y2="100%">
      <stop offset="0%" stop-color="#f8fafc" />
      <stop offset="100%" stop-color="#cbd5e1" />
    </linearGradient>
  </defs>
  <rect width="64" height="64" rx="16" fill="url(#bg)" />
  <path
    d="M40 14v22.5c-1.9-1-4.5-1.4-7.1-.7-4.4 1.2-7.1 4.9-6.1 8.3s5.3 5.2 9.7 4c3.6-1 6-3.8 6.2-6.6H43V24.3l9-2.3v14.5c-1.9-1-4.5-1.4-7.1-.7-4.4 1.2-7.1 4.9-6.1 8.3s5.3 5.2 9.7 4c3.9-1 6.4-4 6.2-7V12.1L40 14Z"
    fill="url(#note)"
  />
</svg>
